<mxfile host="app.diagrams.net" modified="2023-09-05T00:05:40.310Z" agent="Mozilla/5.0 (Windows NT 10.0; Win64; x64) AppleWebKit/537.36 (KHTML, like Gecko) Chrome/116.0.0.0 Safari/537.36" etag="upYGpN8OVt4zQ3mgeEnj" version="21.7.2" type="github">
  <diagram id="C5RBs43oDa-KdzZeNtuy" name="Page-1">
    <mxGraphModel dx="864" dy="1598" grid="1" gridSize="10" guides="1" tooltips="1" connect="1" arrows="1" fold="1" page="1" pageScale="1" pageWidth="827" pageHeight="1169" math="0" shadow="0">
      <root>
        <mxCell id="WIyWlLk6GJQsqaUBKTNV-0" />
        <mxCell id="WIyWlLk6GJQsqaUBKTNV-1" parent="WIyWlLk6GJQsqaUBKTNV-0" />
        <mxCell id="hFvQlGW3JObqOLIWQfKL-27" value="" style="shape=note;whiteSpace=wrap;html=1;backgroundOutline=1;darkOpacity=0.05;" vertex="1" parent="WIyWlLk6GJQsqaUBKTNV-1">
          <mxGeometry x="40" y="-680" width="720" height="560" as="geometry" />
        </mxCell>
        <mxCell id="hFvQlGW3JObqOLIWQfKL-1" value="Actor Primário" style="shape=umlActor;verticalLabelPosition=bottom;verticalAlign=top;html=1;outlineConnect=0;" vertex="1" parent="WIyWlLk6GJQsqaUBKTNV-1">
          <mxGeometry x="120" y="140" width="30" height="60" as="geometry" />
        </mxCell>
        <mxCell id="hFvQlGW3JObqOLIWQfKL-0" value="" style="whiteSpace=wrap;html=1;aspect=fixed;fillStyle=cross-hatch;" vertex="1" parent="WIyWlLk6GJQsqaUBKTNV-1">
          <mxGeometry x="200" y="-40" width="400" height="400" as="geometry" />
        </mxCell>
        <mxCell id="hFvQlGW3JObqOLIWQfKL-5" value="Actor Secundário" style="shape=umlActor;verticalLabelPosition=bottom;verticalAlign=top;html=1;outlineConnect=0;" vertex="1" parent="WIyWlLk6GJQsqaUBKTNV-1">
          <mxGeometry x="650" y="140" width="30" height="60" as="geometry" />
        </mxCell>
        <mxCell id="hFvQlGW3JObqOLIWQfKL-7" value="" style="ellipse;whiteSpace=wrap;html=1;" vertex="1" parent="WIyWlLk6GJQsqaUBKTNV-1">
          <mxGeometry x="330" width="120" height="80" as="geometry" />
        </mxCell>
        <mxCell id="hFvQlGW3JObqOLIWQfKL-8" value="" style="ellipse;whiteSpace=wrap;html=1;" vertex="1" parent="WIyWlLk6GJQsqaUBKTNV-1">
          <mxGeometry x="330" y="120" width="120" height="80" as="geometry" />
        </mxCell>
        <mxCell id="hFvQlGW3JObqOLIWQfKL-9" value="" style="ellipse;whiteSpace=wrap;html=1;" vertex="1" parent="WIyWlLk6GJQsqaUBKTNV-1">
          <mxGeometry x="330" y="240" width="120" height="80" as="geometry" />
        </mxCell>
        <mxCell id="hFvQlGW3JObqOLIWQfKL-11" value="Sistema" style="text;html=1;strokeColor=none;fillColor=none;align=center;verticalAlign=middle;whiteSpace=wrap;rounded=0;" vertex="1" parent="WIyWlLk6GJQsqaUBKTNV-1">
          <mxGeometry x="360" y="-40" width="60" height="30" as="geometry" />
        </mxCell>
        <mxCell id="hFvQlGW3JObqOLIWQfKL-12" value="Caso de uso" style="ellipse;whiteSpace=wrap;html=1;" vertex="1" parent="WIyWlLk6GJQsqaUBKTNV-1">
          <mxGeometry x="78" y="-401" width="90" height="40" as="geometry" />
        </mxCell>
        <mxCell id="hFvQlGW3JObqOLIWQfKL-13" value="Actor" style="shape=umlActor;verticalLabelPosition=bottom;verticalAlign=top;html=1;outlineConnect=0;" vertex="1" parent="WIyWlLk6GJQsqaUBKTNV-1">
          <mxGeometry x="113" y="-351" width="20" height="30" as="geometry" />
        </mxCell>
        <mxCell id="hFvQlGW3JObqOLIWQfKL-14" value="Limite" style="rounded=0;whiteSpace=wrap;html=1;" vertex="1" parent="WIyWlLk6GJQsqaUBKTNV-1">
          <mxGeometry x="93" y="-281" width="60" height="30" as="geometry" />
        </mxCell>
        <mxCell id="hFvQlGW3JObqOLIWQfKL-20" value="" style="endArrow=none;html=1;rounded=0;" edge="1" parent="WIyWlLk6GJQsqaUBKTNV-1">
          <mxGeometry width="50" height="50" relative="1" as="geometry">
            <mxPoint x="49" y="-491" as="sourcePoint" />
            <mxPoint x="99" y="-541" as="targetPoint" />
          </mxGeometry>
        </mxCell>
        <mxCell id="hFvQlGW3JObqOLIWQfKL-21" value="" style="endArrow=classic;html=1;rounded=0;" edge="1" parent="WIyWlLk6GJQsqaUBKTNV-1">
          <mxGeometry width="50" height="50" relative="1" as="geometry">
            <mxPoint x="49" y="-451" as="sourcePoint" />
            <mxPoint x="99" y="-501" as="targetPoint" />
          </mxGeometry>
        </mxCell>
        <mxCell id="hFvQlGW3JObqOLIWQfKL-22" value="" style="endArrow=classic;html=1;rounded=0;dashed=1;" edge="1" parent="WIyWlLk6GJQsqaUBKTNV-1">
          <mxGeometry width="50" height="50" relative="1" as="geometry">
            <mxPoint x="49" y="-411" as="sourcePoint" />
            <mxPoint x="99" y="-461" as="targetPoint" />
          </mxGeometry>
        </mxCell>
        <mxCell id="hFvQlGW3JObqOLIWQfKL-23" value="Associação" style="text;html=1;strokeColor=none;fillColor=none;align=center;verticalAlign=middle;whiteSpace=wrap;rounded=0;" vertex="1" parent="WIyWlLk6GJQsqaUBKTNV-1">
          <mxGeometry x="108" y="-561" width="60" height="30" as="geometry" />
        </mxCell>
        <mxCell id="hFvQlGW3JObqOLIWQfKL-24" value="Generalização" style="text;html=1;strokeColor=none;fillColor=none;align=center;verticalAlign=middle;whiteSpace=wrap;rounded=0;" vertex="1" parent="WIyWlLk6GJQsqaUBKTNV-1">
          <mxGeometry x="109" y="-521" width="60" height="30" as="geometry" />
        </mxCell>
        <mxCell id="hFvQlGW3JObqOLIWQfKL-25" value="Extensão / Inclusão" style="text;html=1;strokeColor=none;fillColor=none;align=center;verticalAlign=middle;whiteSpace=wrap;rounded=0;" vertex="1" parent="WIyWlLk6GJQsqaUBKTNV-1">
          <mxGeometry x="79" y="-481" width="150" height="30" as="geometry" />
        </mxCell>
        <mxCell id="hFvQlGW3JObqOLIWQfKL-28" value="&lt;h1&gt;Anotações&lt;/h1&gt;&lt;p&gt;Associação:&lt;/p&gt;&lt;p&gt;Generalização:&lt;/p&gt;&lt;p&gt;Extensão:&lt;/p&gt;&lt;p&gt;Inclusão:&lt;/p&gt;&lt;p&gt;&lt;br&gt;&lt;/p&gt;&lt;p&gt;Como identificar atores de caso de uso:&lt;/p&gt;&lt;p&gt;&lt;br&gt;&lt;/p&gt;" style="text;html=1;strokeColor=none;fillColor=none;spacing=5;spacingTop=-20;whiteSpace=wrap;overflow=hidden;rounded=0;" vertex="1" parent="WIyWlLk6GJQsqaUBKTNV-1">
          <mxGeometry x="290" y="-651" width="300" height="291" as="geometry" />
        </mxCell>
      </root>
    </mxGraphModel>
  </diagram>
</mxfile>
